<?xml version="1.0" encoding="UTF-8" standalone="no"?>
<svg
   xmlns:dc="http://purl.org/dc/elements/1.1/"
   xmlns:cc="http://creativecommons.org/ns#"
   xmlns:rdf="http://www.w3.org/1999/02/22-rdf-syntax-ns#"
   xmlns:svg="http://www.w3.org/2000/svg"
   xmlns="http://www.w3.org/2000/svg"
   xmlns:sodipodi="http://sodipodi.sourceforge.net/DTD/sodipodi-0.dtd"
   xmlns:inkscape="http://www.inkscape.org/namespaces/inkscape"
   width="210mm"
   height="297mm"
   viewBox="0 0 210 297"
   version="1.1"
   id="svg8"
   sodipodi:docname="flecha.svg"
   inkscape:version="1.0.2 (e86c870879, 2021-01-15)">
  <defs
     id="defs2" />
  <sodipodi:namedview
     id="base"
     pagecolor="#ffffff"
     bordercolor="#666666"
     borderopacity="1.0"
     inkscape:pageopacity="0.0"
     inkscape:pageshadow="2"
     inkscape:zoom="0.24748738"
     inkscape:cx="338.42761"
     inkscape:cy="421.11645"
     inkscape:document-units="mm"
     inkscape:current-layer="layer1"
     inkscape:document-rotation="0"
     showgrid="false"
     inkscape:window-width="1329"
     inkscape:window-height="688"
     inkscape:window-x="0"
     inkscape:window-y="26"
     inkscape:window-maximized="0" />
  <metadata
     id="metadata5">
    <rdf:RDF>
      <cc:Work
         rdf:about="">
        <dc:format>image/svg+xml</dc:format>
        <dc:type
           rdf:resource="http://purl.org/dc/dcmitype/StillImage" />
      </cc:Work>
    </rdf:RDF>
  </metadata>
  <g
     inkscape:label="Capa 1"
     inkscape:groupmode="layer"
     id="layer1">
    <path
       style="fill:#000000;stroke-width:0"
       d="M 58.433224,214.31037 3.8126662,143.4213 33.493679,143.22408 63.174682,143.02684 63.6944,84.633778 c 0.285847,-32.116339 0.576964,-58.442826 0.64693,-58.503314 0.06991,-0.06049 17.434466,-0.255 38.58779,-0.432257 l 38.46077,-0.32228 0.18324,58.644766 0.18326,58.644487 28.62523,0.54104 c 15.74384,0.29759 31.43827,0.63784 34.87646,0.75613 l 6.25123,0.21506 -48.71088,69.94071 c -26.79095,38.46739 -48.94349,70.19732 -49.22786,70.51099 -0.28438,0.31368 -25.09619,-31.32977 -55.137346,-70.31874 z"
       id="path957" />
    <path
       style="fill:#ffffff;stroke-width:0"
       d="m 75.704752,211.12277 -36.559044,-57.7471 19.86632,-0.16065 19.866314,-0.16065 0.347858,-47.56827 c 0.191326,-26.162506 0.386176,-47.608493 0.433008,-47.657773 0.04679,-0.04925 11.669366,-0.207733 25.827872,-0.352126 l 25.74291,-0.262532 0.12269,47.772981 0.12279,47.77313 19.15965,0.44076 c 10.53779,0.2424 21.0425,0.51956 23.34377,0.61594 l 4.1841,0.17528 -32.6035,56.97455 c -17.93194,31.33602 -32.75927,57.18359 -32.94957,57.43912 -0.19038,0.2555 -16.797687,-25.52161 -36.905053,-57.2825 z"
       id="path957-2" />
  </g>
</svg>
