<?xml version="1.0" encoding="UTF-8" standalone="no"?>
<svg
   xmlns:dc="http://purl.org/dc/elements/1.1/"
   xmlns:cc="http://creativecommons.org/ns#"
   xmlns:rdf="http://www.w3.org/1999/02/22-rdf-syntax-ns#"
   xmlns:svg="http://www.w3.org/2000/svg"
   xmlns="http://www.w3.org/2000/svg"
   xmlns:sodipodi="http://sodipodi.sourceforge.net/DTD/sodipodi-0.dtd"
   xmlns:inkscape="http://www.inkscape.org/namespaces/inkscape"
   width="210mm"
   height="297mm"
   viewBox="0 0 210 297"
   version="1.1"
   id="svg8"
   sodipodi:docname="signo-mas.svg"
   inkscape:version="1.0.2 (e86c870879, 2021-01-15)">
  <defs
     id="defs2" />
  <sodipodi:namedview
     id="base"
     pagecolor="#ffffff"
     bordercolor="#666666"
     borderopacity="1.0"
     inkscape:pageopacity="0.0"
     inkscape:pageshadow="2"
     inkscape:zoom="0.35"
     inkscape:cx="378.57143"
     inkscape:cy="680.77815"
     inkscape:document-units="mm"
     inkscape:current-layer="layer1"
     inkscape:document-rotation="0"
     showgrid="false"
     inkscape:window-width="1329"
     inkscape:window-height="688"
     inkscape:window-x="0"
     inkscape:window-y="26"
     inkscape:window-maximized="0" />
  <metadata
     id="metadata5">
    <rdf:RDF>
      <cc:Work
         rdf:about="">
        <dc:format>image/svg+xml</dc:format>
        <dc:type
           rdf:resource="http://purl.org/dc/dcmitype/StillImage" />
      </cc:Work>
    </rdf:RDF>
  </metadata>
  <g
     inkscape:label="Capa 1"
     inkscape:groupmode="layer"
     id="layer1">
    <rect
       style="fill:#000000;stroke-width:0"
       id="rect835"
       width="61.316227"
       height="209.99696"
       x="72.981873"
       y="35.41317" />
    <path
       id="rect835-3"
       style="fill:#000000;stroke-width:0"
       d="m 211.43912,171.68884 c 0.3846,-19.53968 0.7692,-39.07936 1.15381,-58.61916 C 142.24074,111.72315 71.888734,110.37664 1.536915,109.03013 1.1523123,128.56992 0.76770833,148.10963 0.38310435,167.6493 70.734938,168.99583 141.08693,170.34233 211.43912,171.68884 Z" />
    <path
       id="rect835-3-6"
       style="fill:#ffffff;stroke-width:0"
       d="m 196.80219,157.90085 c 0.32461,-10.13806 0.64925,-20.27616 0.97388,-30.41422 -59.74043,-0.67981 -119.480737,-1.35964 -179.220875,-2.03942 -0.324623,10.13813 -0.649245,20.27617 -0.973865,30.41423 59.740133,0.67982 119.48045,1.35964 179.22086,2.03941 z" />
    <path
       id="rect835-3-6-7"
       style="fill:#ffffff;stroke-width:0"
       d="M 122.05725,47.584217 C 110.01333,47.284691 97.96934,46.985163 85.92543,46.685636 85.411015,108.15594 84.89655,169.6262 84.382148,231.09617 c 12.04396,0.2995 24.087872,0.599 36.131802,0.89855 0.51441,-61.46995 1.02898,-122.94019 1.54319,-184.410503 z" />
  </g>
</svg>
